<?xml version="1.0" encoding="iso-8859-1"?>
<!-- Generator: Adobe Illustrator 19.0.0, SVG Export Plug-In . SVG Version: 6.00 Build 0)  -->
<svg version="1.1" id="Capa_1" xmlns="http://www.w3.org/2000/svg" xmlns:xlink="http://www.w3.org/1999/xlink" x="0px" y="0px"
	 viewBox="0 0 480 480" style="enable-background:new 0 0 480 480;" xml:space="preserve">
<linearGradient id="SVGID_1_" gradientUnits="userSpaceOnUse" x1="-26.875" y1="558.175" x2="-26.875" y2="617.888" gradientTransform="matrix(8 0 0 -8 455 4941)">
	<stop  offset="0" style="stop-color:#006DF0"/>
	<stop  offset="1" style="stop-color:#00E7F0"/>
</linearGradient>
<path style="fill:url(#SVGID_1_);" d="M456,48c-13.255,0-24,10.745-24,24v72H327.704c-14.528-22.77-37.395-38.943-63.704-45.056V48
	h56c13.255,0,24-10.745,24-24S333.255,0,320,0H160c-13.255,0-24,10.745-24,24s10.745,24,24,24h56v51.024
	c-32.403,7.576-59.192,30.262-72,60.976H88c-30.911,0.04-55.96,25.089-56,56v56h-8c-13.228,0.066-23.934,10.772-24,24
	c0,13.255,10.745,24,24,24h96c13.228-0.066,23.934-10.772,24-24c0-13.255-10.745-24-24-24h-8v-24c0-4.418,3.582-8,8-8h24
	c22.072,53.027,82.953,78.121,135.98,56.049c19.615-8.165,36.259-22.141,47.692-40.049H432v72c0,13.255,10.745,24,24,24
	s24-10.745,24-24V72C480,58.745,469.255,48,456,48z M152,24c0-4.418,3.582-8,8-8h160c4.418,0,8,3.582,8,8s-3.582,8-8,8H160
	C155.582,32,152,28.418,152,24z M248,48v48.312c-2.672-0.2-5.344-0.312-8-0.312s-5.328,0.112-8,0.312V48L248,48z M128,296
	c0.004,2.159-0.885,4.223-2.456,5.704c-1.46,1.486-3.461,2.315-5.544,2.296H24c-4.418,0-8-3.582-8-8
	c-0.004-2.159,0.885-4.223,2.456-5.704c1.46-1.486,3.461-2.315,5.544-2.296h96C124.418,288,128,291.582,128,296z M323.2,240
	c-2.855,0.003-5.492,1.527-6.92,4c-24.283,42.1-78.097,56.543-120.197,32.26c-18.178-10.485-32.011-27.121-39.003-46.908
	c-1.126-3.21-4.158-5.357-7.56-5.352H120c-13.255,0-24,10.745-24,24v24H48v-56c0.026-22.08,17.92-39.974,40-40h61.52
	c3.394,0.004,6.422-2.135,7.552-5.336C169.499,135.519,202.722,112.016,240,112c2.437,0,4.883,0.104,7.336,0.312
	c2.448,0.208,4.888,0.512,7.328,0.928h0.04c25.906,4.285,48.519,19.976,61.6,42.744c1.429,2.475,4.07,4,6.928,4H432V240H323.2z
	 M464,328c0,4.418-3.582,8-8,8s-8-3.582-8-8V72c0-4.418,3.582-8,8-8s8,3.582,8,8V328z"/>
<linearGradient id="SVGID_2_" gradientUnits="userSpaceOnUse" x1="-47.875" y1="558.175" x2="-47.875" y2="617.888" gradientTransform="matrix(8 0 0 -8 455 4941)">
	<stop  offset="0" style="stop-color:#006DF0"/>
	<stop  offset="1" style="stop-color:#00E7F0"/>
</linearGradient>
<path style="fill:url(#SVGID_2_);" d="M66.048,338.656C60.92,344.368,16,395.256,16,424c0,30.928,25.072,56,56,56s56-25.072,56-56
	c0-28.744-44.92-79.632-50.048-85.344c-3.166-3.287-8.398-3.385-11.685-0.219C66.193,338.509,66.12,338.582,66.048,338.656z M72,464
	c-22.08-0.026-39.974-17.92-40-40c0-15.248,22.528-47.072,40-67.8c17.472,20.72,40,52.536,40,67.8
	C111.974,446.08,94.08,463.974,72,464z"/>
<g>
</g>
<g>
</g>
<g>
</g>
<g>
</g>
<g>
</g>
<g>
</g>
<g>
</g>
<g>
</g>
<g>
</g>
<g>
</g>
<g>
</g>
<g>
</g>
<g>
</g>
<g>
</g>
<g>
</g>
</svg>
