<?xml version="1.0" encoding="utf-8"?>
<!-- Generator: Adobe Illustrator 22.1.0, SVG Export Plug-In . SVG Version: 6.00 Build 0)  -->
<svg version="1.1" id="Capa_1" xmlns="http://www.w3.org/2000/svg" xmlns:xlink="http://www.w3.org/1999/xlink" x="0px" y="0px"
	 viewBox="0 0 480 480" style="enable-background:new 0 0 480 480;" xml:space="preserve">
<style type="text/css">
	.st0{fill:url(#SVGID_1_);}
	.st1{fill:url(#SVGID_2_);}
</style>
<linearGradient id="SVGID_1_" gradientUnits="userSpaceOnUse" x1="-83.75" y1="98.2" x2="-83.75" y2="38.487" gradientTransform="matrix(8 0 0 8 910 -310)">
	<stop  offset="0" style="stop-color:#5B5B5B"/>
	<stop  offset="1" style="stop-color:#A3A3A3"/>
</linearGradient>
<path class="st0" d="M456,48c-13.3,0-24,10.7-24,24v72H327.7c-14.5-22.8-37.4-38.9-63.7-45.1V48h56c13.3,0,24-10.7,24-24
	S333.3,0,320,0H160c-13.3,0-24,10.7-24,24s10.7,24,24,24h56v51c-32.4,7.6-59.2,30.3-72,61H88c-30.9,0-56,25.1-56,56v56h-8
	c-13.2,0.1-23.9,10.8-24,24c0,13.3,10.7,24,24,24h96c13.2-0.1,23.9-10.8,24-24c0-13.3-10.7-24-24-24h-8v-24c0-4.4,3.6-8,8-8h24
	c22.1,53,83,78.1,136,56c19.6-8.2,36.3-22.1,47.7-40H432v72c0,13.3,10.7,24,24,24s24-10.7,24-24V72C480,58.7,469.3,48,456,48z
	 M152,24c0-4.4,3.6-8,8-8h160c4.4,0,8,3.6,8,8s-3.6,8-8,8H160C155.6,32,152,28.4,152,24z M248,48v48.3c-2.7-0.2-5.3-0.3-8-0.3
	s-5.3,0.1-8,0.3V48H248z M128,296c0,2.2-0.9,4.2-2.5,5.7c-1.5,1.5-3.5,2.3-5.5,2.3H24c-4.4,0-8-3.6-8-8c0-2.2,0.9-4.2,2.5-5.7
	c1.5-1.5,3.5-2.3,5.5-2.3h96C124.4,288,128,291.6,128,296z M323.2,240c-2.9,0-5.5,1.5-6.9,4c-24.3,42.1-78.1,56.5-120.2,32.3
	c-18.2-10.5-32-27.1-39-46.9c-1.1-3.2-4.2-5.4-7.6-5.4H120c-13.3,0-24,10.7-24,24v24H48v-56c0-22.1,17.9-40,40-40h61.5
	c3.4,0,6.4-2.1,7.6-5.3c12.4-35.1,45.6-58.6,82.9-58.7c2.4,0,4.9,0.1,7.3,0.3c2.4,0.2,4.9,0.5,7.3,0.9h0c25.9,4.3,48.5,20,61.6,42.7
	c1.4,2.5,4.1,4,6.9,4H432v80H323.2z M464,328c0,4.4-3.6,8-8,8s-8-3.6-8-8V72c0-4.4,3.6-8,8-8s8,3.6,8,8V328z"/>
<linearGradient id="SVGID_2_" gradientUnits="userSpaceOnUse" x1="-104.75" y1="98.2" x2="-104.75" y2="38.487" gradientTransform="matrix(8 0 0 8 910 -310)">
	<stop  offset="0" style="stop-color:#5B5B5B"/>
	<stop  offset="1" style="stop-color:#A3A3A3"/>
</linearGradient>
<path class="st1" d="M66,338.7c-5.1,5.7-50,56.6-50,85.3c0,30.9,25.1,56,56,56s56-25.1,56-56c0-28.7-44.9-79.6-50-85.3
	c-3.2-3.3-8.4-3.4-11.7-0.2C66.2,338.5,66.1,338.6,66,338.7z M72,464c-22.1,0-40-17.9-40-40c0-15.2,22.5-47.1,40-67.8
	c17.5,20.7,40,52.5,40,67.8C112,446.1,94.1,464,72,464z"/>
</svg>
