<?xml version="1.0" encoding="utf-8"?>
<!-- Generator: Adobe Illustrator 22.1.0, SVG Export Plug-In . SVG Version: 6.00 Build 0)  -->
<svg version="1.1" id="Capa_1" xmlns="http://www.w3.org/2000/svg" xmlns:xlink="http://www.w3.org/1999/xlink" x="0px" y="0px"
	 viewBox="0 0 512 512" style="enable-background:new 0 0 512 512;" xml:space="preserve">
<style type="text/css">
	.st0{fill:url(#SVGID_1_);}
	.st1{fill:url(#SVGID_2_);}
	.st2{fill:url(#SVGID_3_);}
	.st3{fill:url(#SVGID_4_);}
	.st4{fill:url(#SVGID_5_);}
	.st5{fill:url(#SVGID_6_);}
</style>
<g>
	<g>
		<linearGradient id="SVGID_1_" gradientUnits="userSpaceOnUse" x1="356.2049" y1="511.135" x2="311.2049" y2="-42.865">
			<stop  offset="0" style="stop-color:#ED1C24"/>
			<stop  offset="1" style="stop-color:#004B23"/>
		</linearGradient>
		<path class="st0" d="M343.7,138.2c-4.1,0-7.5,3.4-7.5,7.5v33.6c0,4.6-3.7,8.3-8.3,8.3c-4.6,0-8.3-3.7-8.3-8.3v-15.8
			c0-4.1-3.4-7.5-7.5-7.5c-4.1,0-7.5,3.4-7.5,7.5v15.8c0,12.8,10.4,23.3,23.3,23.3s23.3-10.4,23.3-23.3v-33.6
			C351.2,141.5,347.8,138.2,343.7,138.2z"/>
	</g>
</g>
<g>
	<g>
		<linearGradient id="SVGID_2_" gradientUnits="userSpaceOnUse" x1="354.6003" y1="511.2653" x2="309.6003" y2="-42.7347">
			<stop  offset="0" style="stop-color:#ED1C24"/>
			<stop  offset="1" style="stop-color:#004B23"/>
		</linearGradient>
		<path class="st1" d="M348.6,21.2c-3.7-1.8-8.2-0.2-10,3.5c-1.8,3.7-0.2,8.2,3.5,10c15.1,7.2,29.1,16.3,41.8,26.9
			c7.6,29.2,2.5,40.6-11.7,61.6c-3.7,5.5-6.7,9.9-7.8,14.6c-1.6,6.5,0.6,12.2,6.4,17.1c12.8,10.6,18.2,6.4,26.7,13.5
			c7.9,6.6,8.7,42.5,41,50.9c8.3,2.2,14.1,5.5,16.5,9.4c-0.3,4.3-0.7,8.5-1.3,12.8c-7.8,12.7-65.9,47.7-60.9,101.3
			c0.5,5.1,1.1,10.2,1.7,15.4c-20.3,19.6-26.9,19-26.9,26v21.2c0,4.4-3.2,8.1-7.2,8.6c-5.1,0.6-9.3-3.5-9.3-8.2c0-5,0,1.4,0-39.6
			c0-4.1-3.4-7.5-7.5-7.5s-7.5,3.4-7.5,7.5v31.2c-45,19.7-64,9.9-64,22.9v19.6c0,2.3-1,4.6-2.8,6.2c-5.5,4.9-13.7,0.7-13.7-6.6
			c0-9.4,0.1-5.8-0.4-21c-0.1-13.8-12.2-24.6-26.1-23c-11.7,1.4-20.4,11.5-20.4,23.5v26.9c0,4.1,3.4,7.5,7.5,7.5s7.5-3.4,7.5-7.5
			v-26.9c0-4.4,3.2-8.1,7.2-8.6c4.5-0.5,9.1,2.6,9.3,8.5l0.4,12.7v7.9c0,20.8,23.9,30.9,38.7,17.8c11.1-9.8,7-22.7,7.8-30.5
			c17.3-2.5,34.1-7.1,50.2-13.7c3.5,10.4,13.9,17,24.9,15.7c11.7-1.4,20.4-11.5,20.4-23.5v-17.6C515.2,290.7,492.7,90.1,348.6,21.2z
			 M408,343.8c-3.1-31.7,16.7-54.4,40.3-75.8C440.9,294.9,427.8,320.6,408,343.8z M418.1,176c-2.9-7.6-5.6-14.8-11-19.2
			c-11.9-9.8-17.1-5.5-26.7-13.5c-1.2-1-1.5-1.5-1.5-1.5c-0.1-1.5,3.3-6.6,5.7-10.2c12.5-18.7,18.9-30.7,17.3-52.8
			c32.5,34.8,52.3,81.1,53.5,131C451.8,207.7,430.7,209.1,418.1,176z"/>
	</g>
</g>
<g>
	<g>
		<linearGradient id="SVGID_3_" gradientUnits="userSpaceOnUse" x1="242.4244" y1="520.3771" x2="197.4244" y2="-33.6229">
			<stop  offset="0" style="stop-color:#ED1C24"/>
			<stop  offset="1" style="stop-color:#004B23"/>
		</linearGradient>
		<path class="st2" d="M271.1,354.4c-9.2-9.2-32.9-6.4-36.9-10.1c-3.1-3.1-27-22.1-42.1-15.8c-3.5,1.4-9.3,5.4-9.3,16.1
			c0,1.2,0.3,2.4,0.9,3.5c0.7,1.4,18.4,34.2,47.7,34.2c17.7,0,38.1-3.9,42.6-14.8C275.9,363.1,274.8,358.2,271.1,354.4z
			 M231.4,367.3c-17.2,0-29.9-18.6-33.4-24.4c0-0.3,0.1-0.4,0.1-0.6c3.7-0.9,18.9,6.1,25.5,12.7c7.6,7.6,22.6,6,33.1,8.5
			C252.2,365.3,243.9,367.3,231.4,367.3z"/>
	</g>
</g>
<g>
	<g>
		<linearGradient id="SVGID_4_" gradientUnits="userSpaceOnUse" x1="290.2375" y1="516.4933" x2="245.2375" y2="-37.5067">
			<stop  offset="0" style="stop-color:#ED1C24"/>
			<stop  offset="1" style="stop-color:#004B23"/>
		</linearGradient>
		<path class="st3" d="M294,265.3c-9.1-2.2-16.7,6.3-19.2,15.2c-1.1,3.8-1.5,5.2-7.3,5.2c-5,0-30.4,0.6-35.1,11.9
			c-3,7.3,3.6,12.7,3.7,12.9c13.3,13.3,32.3,29.9,49.7,22.4c14.7-6.4,28.3-14.3,28.3-29.3C314.1,297.9,308.6,268.8,294,265.3z
			 M279.9,319.1c-6.1,2.6-16.3-2.9-30.2-16.3c17.4-4.8,33.5,3.2,39.5-18.2c0.2-0.7,0.4-1.7,2-3.9c3.2,3.8,8,16.3,8,22.9
			C299.1,307.3,296.8,311.8,279.9,319.1z"/>
	</g>
</g>
<g>
	<g>
		<linearGradient id="SVGID_5_" gradientUnits="userSpaceOnUse" x1="137.6977" y1="528.8838" x2="92.6977" y2="-25.1162">
			<stop  offset="0" style="stop-color:#ED1C24"/>
			<stop  offset="1" style="stop-color:#004B23"/>
		</linearGradient>
		<path class="st4" d="M132.4,439.8c-13,0-23.5,10.6-23.5,23.5s10.6,23.5,23.5,23.5s23.5-10.6,23.5-23.5
			C155.9,450.4,145.4,439.8,132.4,439.8z M132.4,471.9c-4.7,0-8.5-3.8-8.5-8.5s3.8-8.5,8.5-8.5c4.7,0,8.5,3.8,8.5,8.5
			C140.9,468.1,137.1,471.9,132.4,471.9z"/>
	</g>
</g>
<g>
	<g>
		<linearGradient id="SVGID_6_" gradientUnits="userSpaceOnUse" x1="212.5502" y1="522.8037" x2="167.5502" y2="-31.1963">
			<stop  offset="0" style="stop-color:#ED1C24"/>
			<stop  offset="1" style="stop-color:#004B23"/>
		</linearGradient>
		<path class="st5" d="M312.4,7.7C139.6-39-10.5,134.6,58.9,298.2c11.2,26.4,27.3,49.9,47.9,70c3.7,3.6,1.4,5.6,2.1,37.9
			c0,20.4,23.6,31.2,38.7,17.8c8.8-7.8,7.8-18.4,7.8-18.8c0-0.6,0.7-1,1.2-0.7c4.9,2.6,10.2,5,11,5.4c3.4,1.4,9.6,5.6,9.6,8.7v69.8
			c0,12,8.8,22.1,20.4,23.5c6.6,0.8,13.3-1.3,18.2-5.7c10.4-9.2,7.3-21.2,7.9-25.3c0-4.1-3.4-7.5-7.5-7.5s-7.5,3.4-7.5,7.5v7.9
			c0,4.8-4.2,8.8-9.3,8.2c-4.1-0.5-7.2-4.3-7.2-8.6v-69.8c0-14-16.2-21.4-18.7-22.5c-3.3-1.5-6.7-3.2-9.9-4.9
			c-5-2.6-10.8-2.4-15.6,0.4c-8.6,5.2-7.5,14.6-7.6,14.9c0,4.8-4.2,8.8-9.3,8.2c-4.1-0.5-7.2-4.3-7.2-8.6v-33
			c0-5.9-2.4-11.6-6.6-15.7c-13.7-13.4-25.3-28.4-34.5-44.5c9.8-12,16.8-24.2,23.1-32.8c14,33.6,58.4,71.5,71.1,52.4
			c7.4-11.2-10.8-30.2-10.8-50.3c0-14.6,31.5-7.4,65.5-25.2c20.2-10.6,27.5-29,20.1-50.6c-1.3-3.9-5.6-6-9.5-4.7
			c-3.9,1.3-6,5.6-4.7,9.5c5,14.7,0.8,25.3-12.9,32.5c-42.2,22.1-94.7,0.6-64.8,71.4c0.8,1.9,1.8,4.2,2.5,6.2
			c-14.7-6.2-38-31-44.4-51.5c-2.1-6.8-6.5-8.4-8.9-8.8c-11.3-1.6-17.8,15.3-33.9,37c-19.8-42.9-23.3-90.8-11.6-134.8
			c9.6,1.4,17,5.7,19.9,8.5c16.5,16.5,39.6-18.9,27.7-30.7c-4.1-4.1-9.5-10.8-9.5-21.6c0-3.8-1.2-11.6-10.6-16.3
			c7.8-11.4,16.7-22,26.7-31.7c0.2,1.4,0.1-3.1,0.1,70.6c0,6.6,2.9,13,7.8,17.4c5,4.4,11.6,6.5,18.2,5.7
			c11.7-1.4,20.4-11.5,20.4-23.5V80.3c0-4.3,3.2-8.1,7.2-8.6c5.1-0.6,9.3,3.5,9.3,8.2c0,0.6,0,0.5,0.4,5.2v8.1
			c0,13.8,12.2,24.8,26.1,23.1c11.7-1.4,20.4-11.5,20.4-23.5V80.2c0-3.4,3.1-5.9,6.5-5.1c6,1.4,10.3,3.6,12.4,6.4
			c9.8,13.1,29,16.4,28.6,20.6c-1.3,12.1-1.4,21.8-34,21.8c-19.1,0-27.2,8.2-30.7,15.1c-6.8,13.6-0.5,32.4,8.2,44.1
			c2.5,3.3,7.2,4,10.5,1.5c3.3-2.5,4-7.2,1.5-10.5c-6.2-8.3-10.5-21.2-6.8-28.4c2.3-4.5,8.1-6.8,17.3-6.8c19.4,0,32-3.6,39.8-11.2
			c7.3-7.2,8.2-16,9-23.2l0.1-0.8c2.1-19.2-22.7-19.7-31.5-31.3c-4.3-5.8-11.4-9.8-21-12c-6.1-1.4-12.3,0.1-17.2,3.9
			c-10.8,8.6-6.8,20.8-7.6,28.4c0,7.3-8.2,11.5-13.7,6.6c-4.3-3.8-2.3-8.5-2.8-14.7c0-0.6,0-0.5-0.4-5.2
			c-0.2-13.8-12.3-24.4-26.1-22.7c-11.7,1.4-20.4,11.5-20.4,23.5v61.4c0,4.4-3.2,8.1-7.2,8.6c-2.4,0.3-4.7-0.4-6.5-2
			c-1.8-1.6-2.8-3.8-2.8-6.2c-1.1-68.8,2.5-71.6-3.3-81.2c52-43,119.1-55,178.9-38.8c4,1.1,8.1-1.3,9.2-5.3
			C318.7,12.9,316.4,8.8,312.4,7.7z M99.5,150.7c-0.4,3-3.6,8.6-5.9,10.1C88.5,156,79.2,151,68,148.9c4-11.4,9-22.3,15-32.8
			c1.9,0.8,3.6,1.9,3.6,3.5C86.7,131.4,90.9,141.6,99.5,150.7z"/>
	</g>
</g>
</svg>
