<?xml version="1.0" encoding="utf-8"?>
<!-- Generator: Adobe Illustrator 22.1.0, SVG Export Plug-In . SVG Version: 6.00 Build 0)  -->
<svg version="1.1" id="Layer_1" xmlns="http://www.w3.org/2000/svg" xmlns:xlink="http://www.w3.org/1999/xlink" x="0px" y="0px"
	 viewBox="0 0 376.4 376.4" style="enable-background:new 0 0 376.4 376.4;" xml:space="preserve">
<style type="text/css">
	.st0{fill:#555555;}
	.st1{fill:#C9C9C9;}
	.st2{fill:#828282;}
	.st3{fill:#3C3C3C;}
	.st4{fill:#6C6C6C;}
</style>
<g>
	<g>
		<path class="st0" d="M185.5,93.5v135.1c0,25.6,20.8,46.4,46.4,46.4v37.1h-74.8c-37,0-67-30-67-67v-23.2c0-18.6-11.6-34.5-28-40.9
			l0,0C25.9,168.4,0,134,0,93.5C0,42.3,41.5,0.8,92.7,0.8S185.5,42.3,185.5,93.5z"/>
		<path class="st1" d="M92.7,0.8c8.3,0,16.3,1.1,24,3.1c32.2,16,53.9,49.2,53.9,87V228c0,24.3,19.8,44,44,44h0.8
			c5.1,1.9,10.6,3,16.4,3v3h-17.2c-27.6,0-50-22.4-50-50V90.9c0-45-32.8-83.1-76.8-90C89.4,0.8,91.1,0.8,92.7,0.8z"/>
	</g>
	<path class="st2" d="M200.7,208.5v-142c0-12,9.7-21.7,21.7-21.7c12,0,21.7,9.7,21.7,21.7v8c10.2-5,21.8-7.8,33.9-7.8h14.2
		c42.7,0,77.2,34.6,77.2,77.2c0,28.2-15.1,52.8-37.6,66.3c17.3,17.1,28.1,40.9,28.1,67.2c0,52.2-42.3,94.5-94.5,94.5
		s-94.5-42.3-94.5-94.5C170.9,250.2,182.4,225.7,200.7,208.5z"/>
	<circle class="st3" cx="315.4" cy="124.2" r="8.3"/>
	<g>
		<path class="st3" d="M369.8,133c0-1.6-1.3-3-3-3l-5.2,0.1c-5.5,0-6.7,3.1-2.8,6.9l4.4,4.2c1.8,1.8,4.2,2.7,6.5,2.7L369.8,133
			L369.8,133z"/>
	</g>
	<path class="st4" d="M235.5,246.5c35.7,0,64.6,28.9,64.6,64.6v28.4h24c10,0,18.1,8.1,18.1,18.1c0,10-8.1,18.1-18.1,18.1h-56.1
		c0,0,0,0,0,0h-32.4c-35.7,0-64.6-28.9-64.6-64.6C170.9,275.4,199.8,246.5,235.5,246.5z"/>
	<path class="st4" d="M371.1,268.7c7.1,7.1,7.1,18.5,0,25.6c-7.1,7.1-18.5,7.1-25.6,0L313,261.6c-7.1-7.1-7.1-18.5,0-25.6
		c7.1-7.1,18.5-7.1,25.6,0L371.1,268.7z"/>
</g>
</svg>
